<?xml version="1.0" encoding="UTF-8" standalone="no"?>
<!-- Created with Inkscape (http://www.inkscape.org/) -->

<svg
   xmlns:dc="http://purl.org/dc/elements/1.1/"
   xmlns:cc="http://creativecommons.org/ns#"
   xmlns:rdf="http://www.w3.org/1999/02/22-rdf-syntax-ns#"
   xmlns:svg="http://www.w3.org/2000/svg"
   xmlns="http://www.w3.org/2000/svg"
   xmlns:sodipodi="http://sodipodi.sourceforge.net/DTD/sodipodi-0.dtd"
   xmlns:inkscape="http://www.inkscape.org/namespaces/inkscape"
   width="744.09448819"
   height="1052.3622047"
   id="svg3657"
   version="1.1"
   inkscape:version="0.48.5 r10040"
   sodipodi:docname="Nuovo documento 2">
  <defs
     id="defs3659" />
  <sodipodi:namedview
     id="base"
     pagecolor="#ffffff"
     bordercolor="#666666"
     borderopacity="1.0"
     inkscape:pageopacity="0.0"
     inkscape:pageshadow="2"
     inkscape:zoom="0.35"
     inkscape:cx="608.56604"
     inkscape:cy="520"
     inkscape:document-units="px"
     inkscape:current-layer="layer1"
     showgrid="false"
     inkscape:window-width="1078"
     inkscape:window-height="705"
     inkscape:window-x="61"
     inkscape:window-y="20"
     inkscape:window-maximized="0" />
  <metadata
     id="metadata3662">
    <rdf:RDF>
      <cc:Work
         rdf:about="">
        <dc:format>image/svg+xml</dc:format>
        <dc:type
           rdf:resource="http://purl.org/dc/dcmitype/StillImage" />
        <dc:title></dc:title>
      </cc:Work>
    </rdf:RDF>
  </metadata>
  <g
     inkscape:label="Livello 1"
     inkscape:groupmode="layer"
     id="layer1">
    <path
       style="fill:#008bff;fill-opacity:1"
       inkscape:connector-curvature="0"
       d="m 416.4033,489.44939 c -13.19831,52.9384 -66.81609,85.156 -119.76066,71.9546 -52.92297,-13.19832 -85.14057,-66.81918 -71.93608,-119.75449 13.19214,-52.94458 66.80992,-85.16527 119.73905,-71.96695 52.94149,13.19831 85.15601,66.82535 71.95769,119.76684 z"
       id="path3818" />
    <path
       style="fill:#008bff;fill-opacity:1"
       d="m 194.55335,438.69501 c 8.8527,-33.03884 30.30959,-62.70256 62.27273,-81.1565 31.96402,-18.45445 68.38066,-22.20514 101.42083,-13.35203 l 14.56521,-54.35807 c -46.95177,-12.58068 -98.70143,-7.25004 -144.12357,18.97445 -45.42127,26.224 -75.91258,68.37517 -88.49328,115.32694 l 54.35808,14.56521 z"
       id="path4705"
       inkscape:connector-curvature="0" />
    <path
       style="fill:#008bff;fill-opacity:1"
       d="M 99.428103,413.20628 C 114.80371,355.82096 152.07168,304.30317 207.58677,272.25152 263.10188,240.19987 326.3507,233.68426 383.73651,249.06072 l 14.92933,-55.71699 C 327.02107,174.1473 248.05461,182.28111 178.74539,222.29679 109.43618,262.31249 62.908033,326.63302 43.711093,398.27694 l 55.71701,14.92934 z"
       id="wireless-icon"
       inkscape:connector-curvature="0" />
    <path
       style="fill:#ffffff"
       inkscape:connector-curvature="0"
       d="m 366.12265,453.4664 c 1.96709,-13.1489 -8.04436,-20.21744 -21.73368,-24.93289 l 4.44062,-17.81186 -10.84214,-2.70204 -4.32327,17.34247 c -2.85026,-0.71025 -5.77773,-1.38036 -8.68667,-2.04429 l 4.35414,-17.45673 -10.83596,-2.70204 -4.4437,17.80568 c -2.35927,-0.53732 -4.6753,-1.06846 -6.9234,-1.6274 l 0.0124,-0.0556 -14.95232,-3.73345 -2.88424,11.58018 c 0,0 8.04436,1.84356 7.87452,1.95782 4.3912,1.09625 5.18483,4.00211 5.05205,6.30579 l -5.05823,20.29156 c 0.30263,0.0772 0.69482,0.18837 1.12714,0.3613 -0.3613,-0.0895 -0.74731,-0.18837 -1.14566,-0.2841 l -7.09016,28.42548 c -0.53732,1.33404 -1.89915,3.33509 -4.96867,2.57543 0.10808,0.15749 -7.8807,-1.96708 -7.8807,-1.96708 l -5.38247,12.41086 14.10929,3.51729 c 2.62485,0.65775 5.19719,1.34639 7.72939,1.99488 l -4.48694,18.01567 10.82979,2.70204 4.4437,-17.82421 c 2.95835,0.80289 5.83023,1.54402 8.64036,2.24192 l -4.42826,17.74083 10.84213,2.70205 4.48693,-17.98171 c 18.48815,3.49876 32.39054,2.08752 38.24239,-14.63425 4.71545,-13.46389 -0.23469,-21.23033 -9.96204,-26.29473 7.08398,-1.63358 12.42012,-6.29344 13.84371,-15.91889 z m -24.77232,34.73745 c -3.35053,13.46389 -26.01989,6.18536 -33.36944,4.36033 l 5.95376,-23.86752 c 7.34955,1.8343 30.91753,5.46584 27.41568,19.50719 z m 3.35362,-34.93199 c -3.05716,12.24719 -21.92513,6.02478 -28.04564,4.49928 l 5.3979,-21.64721 c 6.12051,1.52549 25.83152,4.37267 22.64774,17.14793 z"
       id="path3820" />
    <flowRoot
       xml:space="preserve"
       id="flowRoot3861"
       style="font-size:40px;font-style:normal;font-weight:normal;line-height:125%;letter-spacing:0px;word-spacing:0px;fill:#000000;fill-opacity:1;stroke:none;font-family:Sans"
       transform="matrix(7.0770381,0,0,7.0770381,-223.22375,-4802.4876)"><flowRegion
         id="flowRegion3863"><rect
           id="rect3865"
           width="931.42859"
           height="300"
           x="94.285713"
           y="720.93359" /></flowRegion><flowPara
         id="flowPara3867"
         style="font-style:italic;font-variant:normal;font-weight:bold;font-stretch:normal;font-family:Absolut Pro reduced;-inkscape-font-specification:Absolut Pro reduced Bold Italic">biwi</flowPara></flowRoot>  </g>
</svg>
